<svg width="100" height="100" viewBox="0 0 100 100" fill="none" xmlns="http://www.w3.org/2000/svg">
<g transform="translate(-12,106.000000) scale(0.04,-0.037)"
fill="#000000" stroke="none">
<path d="M1525 2823 c-84 -11 -168 -49 -372 -166 -70 -41 -199 -111 -286 -158
-87 -46 -166 -90 -175 -99 -9 -8 -55 -38 -100 -65 -199 -119 -242 -205 -242
-482 l0 -163 569 0 c337 0 580 -4 595 -10 32 -12 42 -32 50 -102 l6 -58 -168
0 -169 0 -49 33 c-42 27 -58 32 -110 32 -108 0 -178 -71 -179 -182 0 -42 5
-58 31 -90 67 -84 160 -100 260 -43 l59 35 133 -1 c124 -1 134 -2 157 -24 29
-27 34 -84 11 -116 -13 -17 -28 -19 -174 -19 -155 0 -160 1 -198 27 -75 51
-148 46 -221 -16 -96 -83 -75 -230 42 -286 63 -30 126 -24 193 18 l49 32 171
0 172 0 0 38 c0 63 12 110 32 131 18 21 27 21 478 21 l460 0 0 -28 c0 -53 -29
-127 -62 -159 -18 -17 -117 -76 -219 -131 -222 -119 -278 -150 -302 -171 -10
-8 -91 -55 -180 -103 -216 -117 -207 -118 -428 1 -91 49 -188 104 -215 123
-27 19 -139 83 -249 142 -290 156 -290 156 -290 361 0 130 2 143 24 178 34 55
27 141 -15 194 -60 75 -151 94 -229 48 -81 -47 -109 -159 -63 -248 19 -36 23
-65 28 -202 8 -172 21 -227 76 -306 29 -42 101 -100 179 -144 28 -16 64 -38
80 -51 17 -12 116 -68 220 -124 105 -56 231 -127 281 -156 148 -87 252 -133
324 -143 113 -15 225 12 344 84 32 19 61 35 64 35 3 0 51 26 106 58 56 33 146
83 201 112 123 65 238 131 245 140 3 3 42 28 88 56 198 116 242 204 242 481
l0 163 -569 0 c-337 0 -580 4 -595 10 -32 12 -44 35 -52 104 l-7 56 175 0 175
0 38 -30 c119 -95 289 -9 289 147 0 43 -5 59 -30 90 -39 48 -97 78 -154 78
-35 0 -58 -8 -100 -35 l-55 -35 -137 0 c-136 0 -138 0 -165 27 -36 36 -37 92
-4 119 20 17 41 19 169 19 138 0 148 -1 181 -24 79 -55 175 -50 240 12 93 88
74 219 -40 276 -71 35 -110 33 -193 -9 l-70 -35 -150 0 c-83 0 -156 -4 -163
-8 -7 -4 -15 -33 -18 -64 -7 -76 -21 -105 -58 -118 -19 -6 -188 -10 -468 -10
l-437 0 3 64 c3 75 28 124 78 155 18 10 124 69 237 131 113 61 219 122 235
134 17 13 91 56 165 96 74 40 150 82 169 93 48 29 113 27 176 -5 89 -46 300
-162 305 -168 10 -13 88 -58 284 -164 226 -122 245 -135 272 -179 16 -28 19
-51 19 -173 0 -128 -2 -144 -24 -187 -82 -161 91 -332 244 -242 84 49 108 153
60 257 -22 48 -25 66 -25 178 0 249 -51 343 -252 463 -47 29 -117 71 -155 93
-37 23 -144 83 -238 134 -93 51 -219 119 -278 152 -155 85 -256 115 -352 101z
m599 -795 c23 -32 20 -65 -9 -93 -31 -32 -58 -32 -84 1 -41 52 -17 114 45 114
23 0 38 -7 48 -22z m-19 -372 c30 -13 35 -20 35 -48 0 -49 -13 -61 -61 -62
-36 -1 -45 3 -57 25 -25 42 -4 87 46 98 1 1 18 -6 37 -13z m623 -8 c17 -15 15
-68 -5 -90 -9 -10 -28 -18 -43 -18 -72 0 -100 88 -37 115 32 14 61 11 85 -7z
m-2213 -194 c34 -22 33 -66 -2 -93 -46 -37 -103 -13 -103 42 0 59 53 85 105
51z m614 -16 c33 -58 -25 -115 -86 -86 -23 11 -29 21 -31 54 -2 34 1 42 20 52
39 19 81 10 97 -20z m-14 -363 c46 -45 22 -115 -40 -115 -38 0 -65 28 -65 68
0 26 41 72 65 72 9 0 27 -11 40 -25z"/>
</g>

</svg>
